0
SECTION
2
HEADER
9
$INSUNITS
70
4
9
$ACADVER
1
AC1014
9
$HANDSEED
5
FFFF
0
ENDSEC
0
SECTION
2
TABLES
0
TABLE
2
VPORT
5
8
100
AcDbSymbolTable
0
ENDTAB
0
TABLE
2
LTYPE
5
5
100
AcDbSymbolTable
0
LTYPE
5
14
100
AcDbSymbolTableRecord
100
AcDbLinetypeTableRecord
2
BYBLOCK
70
0
0
LTYPE
5
15
100
AcDbSymbolTableRecord
100
AcDbLinetypeTableRecord
2
BYLAYER
70
0
0
LTYPE
5
16
100
AcDbSymbolTableRecord
100
AcDbLinetypeTableRecord
2
DASHED
70
0
3
Dashed __ __ __ __ __ __ __ __ __ __ __ __ __ _
72
65
73
2
40
0.75
49
0.5
74
0
49
-0.25
74
0
0
ENDTAB
0
TABLE
2
LAYER
5
2
100
AcDbSymbolTable
70
2
0
LAYER
5
50
100
AcDbSymbolTableRecord
100
AcDbLayerTableRecord
2
0
70
0
62
7
6
CONTINUOUS
0
ENDTAB
0
TABLE
2
STYLE
5
3
100
AcDbSymbolTable
70
1
0
STYLE
5
11
100
AcDbSymbolTableRecord
100
AcDbTextStyleTableRecord
2
STANDARD
70
0
0
ENDTAB
0
TABLE
2
VIEW
5
6
100
AcDbSymbolTable
70
0
0
ENDTAB
0
TABLE
2
UCS
5
7
100
AcDbSymbolTable
70
0
0
ENDTAB
0
TABLE
2
APPID
5
9
100
AcDbSymbolTable
70
2
0
APPID
5
12
100
AcDbSymbolTableRecord
100
AcDbRegAppTableRecord
2
ACAD
70
0
0
ENDTAB
0
TABLE
2
DIMSTYLE
5
A
100
AcDbSymbolTable
70
1
0
ENDTAB
0
TABLE
2
BLOCK_RECORD
5
1
100
AcDbSymbolTable
70
1
0
BLOCK_RECORD
5
1F
100
AcDbSymbolTableRecord
100
AcDbBlockTableRecord
2
*MODEL_SPACE
0
BLOCK_RECORD
5
1B
100
AcDbSymbolTableRecord
100
AcDbBlockTableRecord
2
*PAPER_SPACE
0
ENDTAB
0
ENDSEC
0
SECTION
2
BLOCKS
0
BLOCK
5
20
100
AcDbEntity
100
AcDbBlockBegin
2
*MODEL_SPACE
0
ENDBLK
5
21
100
AcDbEntity
100
AcDbBlockEnd
0
BLOCK
5
1C
100
AcDbEntity
100
AcDbBlockBegin
2
*PAPER_SPACE
0
ENDBLK
5
1D
100
AcDbEntity
100
AcDbBlockEnd
0
ENDSEC
0
SECTION
2
ENTITIES
0
LINE
5
100
100
AcDbEntity
8
0
100
AcDbLine
10
242.84735530470002
20
170.42571787680001
30
0
11
240.96935822720002
21
173.92141821459998
31
0
0
LINE
5
101
100
AcDbEntity
8
0
100
AcDbLine
10
23.031461900100002
20
170.17520791709998
30
0
11
24.924733167399999
21
173.78321504110002
31
0
0
SPLINE
5
102
100
AcDbEntity
8
0
100
AcDbSpline
70
0
71
2
72
16
73
13
74
0
42
0.000000001
43
0.0000000001
44
0.0000000001
40
0
40
0
40
0
40
0.0625
40
0.0625
40
0.125
40
0.125
40
0.25
40
0.25
40
0.5
40
0.5
40
0.75
40
0.75
40
1
40
1
40
1
10
22.48746641100265
20
24.284843570309967
30
0
10
23.044524179541398
20
24.280904835480364
30
0
10
23.330896679144359
20
24.27875238577986
30
0
10
23.672338841721722
20
24.276186018263491
30
0
10
24.174323357933897
20
24.272181828490091
30
0
10
24.874115774652257
20
24.266599780542251
30
0
10
25.861171449032216
20
24.25838325434033
30
0
10
26.907229777079024
20
24.249675573624398
30
0
10
29.234860287535373
20
24.229900960128859
30
0
10
31.391817752334514
20
24.2115763162466
30
0
10
32.608548346594574
20
24.201326104908858
30
0
10
32.91085042482193
20
24.198779394729858
30
0
10
35.982239299626848
20
24.173095020723281
30
0
0
SPLINE
5
103
100
AcDbEntity
8
0
100
AcDbSpline
70
0
71
2
72
48
73
45
74
0
42
0.000000001
43
0.0000000001
44
0.0000000001
40
0
40
0
40
0
40
0.031248849694751599
40
0.031248849694751599
40
0.062498849694751599
40
0.062498849694751599
40
0.093748849694751599
40
0.093748849694751599
40
0.1249988496947516
40
0.1249988496947516
40
0.18749884969475161
40
0.18749884969475161
40
0.21874884969475161
40
0.21874884969475161
40
0.24999884969475161
40
0.24999884969475161
40
0.31249884969475161
40
0.31249884969475161
40
0.37499884969475161
40
0.37499884969475161
40
0.43749884969475161
40
0.43749884969475161
40
0.49999884969475161
40
0.49999884969475161
40
0.56249884969475161
40
0.56249884969475161
40
0.62499884969475161
40
0.62499884969475161
40
0.68749884969475161
40
0.68749884969475161
40
0.74999884969475161
40
0.74999884969475161
40
0.78124884969475161
40
0.78124884969475161
40
0.81249884969475161
40
0.81249884969475161
40
0.87499884969475161
40
0.87499884969475161
40
0.90624884969475161
40
0.90624884969475161
40
0.93749884969475161
40
0.93749884969475161
40
0.96874884969475161
40
0.96874884969475161
40
0.99999884969475161
40
0.99999884969475161
40
0.99999884969475161
10
35.982239299626848
20
24.173095020723281
30
0
10
36.118983527874335
20
24.165159958893362
30
0
10
36.187272687053778
20
24.16061008391776
30
0
10
36.301092142013786
20
24.153026679815412
30
0
10
36.391810833967497
20
24.144630743780002
30
0
10
36.500673264311281
20
24.134555620537427
30
0
10
36.595338364835932
20
24.121663765381442
30
0
10
36.699109117208344
20
24.107531867759
30
0
10
36.797350707203996
20
24.08828245200322
30
0
10
36.993105381087865
20
24.049926363671602
30
0
10
37.194926013176854
20
23.987016306421019
30
0
10
37.291600633855744
20
23.956881597899923
30
0
10
37.389576931188827
20
23.921138636947287
30
0
10
37.486425241302207
20
23.885807179636327
30
0
10
37.580864588276476
20
23.846390414914133
30
0
10
37.772017802827222
20
23.766607554006175
30
0
10
37.951575444216147
20
23.670814132333643
30
0
10
38.13277224999706
20
23.574146221752819
30
0
10
38.303537181430023
20
23.460220977404681
30
0
10
38.474269217471914
20
23.346317679104743
30
0
10
38.633370851058629
20
23.216096540558318
30
0
10
38.79230097524578
20
23.08601577863028
30
0
10
38.937852627921387
20
22.941079271890207
30
0
10
39.083562217644648
20
22.795985495593133
30
0
10
39.214126506484
20
22.637733826215008
30
0
10
39.345114765652866
20
22.478968279627381
30
0
10
39.459411681146712
20
22.308747215001929
30
0
10
39.573968242112436
20
22.138139463400076
30
0
10
39.670794315782793
20
21.95725737986189
30
0
10
39.766921924183634
20
21.777680108637686
30
0
10
39.846531136933464
20
21.586614141154193
30
0
10
39.885908737180465
20
21.492105992807026
30
0
10
39.921061830784978
20
21.39521969514583
30
0
10
39.956650731221202
20
21.297132259659378
30
0
10
39.986487833810102
20
21.200382202126328
30
0
10
40.048838483531753
20
20.998203423880561
30
0
10
40.085941433187116
20
20.80232795301654
30
0
10
40.104579224537744
20
20.703934531722894
30
0
10
40.117852582847107
20
20.6000942242812
30
0
10
40.129965220768497
20
20.505334479507869
30
0
10
40.13898709092399
20
20.396379307539711
30
0
10
40.146505316053826
20
20.30558333089861
30
0
10
40.152889882083677
20
20.191676909596879
30
0
10
40.15672062170178
20
20.123333056813784
30
0
10
40.163176817949299
20
19.986480691002999
30
0
0
SPLINE
5
104
100
AcDbEntity
8
0
100
AcDbSpline
70
0
71
2
72
10
73
7
74
0
42
0.000000001
43
0.0000000001
44
0.0000000001
40
0
40
0
40
0
40
0.5
40
0.5
40
0.75
40
0.75
40
1
40
1
40
1
10
19.534503757547679
20
35.07119711283525
30
0
10
20.349009242450393
20
32.094035274736392
30
0
10
21.010577299044442
20
29.677908709189879
30
0
10
21.274867678391264
20
28.712688275413605
30
0
10
21.749026140248734
20
26.981377313098378
30
0
10
22.222935822582421
20
25.250974727943078
30
0
10
22.48746641100265
20
24.284843570309967
30
0
0
SPLINE
5
105
100
AcDbEntity
8
0
100
AcDbSpline
70
0
71
2
72
40
73
37
74
0
42
0.000000001
43
0.0000000001
44
0.0000000001
40
0.0005616895800728
40
0.0005616895800728
40
0.0005616895800728
40
0.015625
40
0.015625
40
0.03125
40
0.03125
40
0.0625
40
0.0625
40
0.125
40
0.125
40
0.1875
40
0.1875
40
0.25
40
0.25
40
0.3125
40
0.3125
40
0.375
40
0.375
40
0.5
40
0.5
40
0.625
40
0.625
40
0.6875
40
0.6875
40
0.75
40
0.75
40
0.8125
40
0.8125
40
0.875
40
0.875
40
0.9375
40
0.9375
40
0.95089285714285721
40
0.95089285714285721
40
0.96875
40
0.96875
40
0.9991700968018038
40
0.9991700968018038
40
0.9991700968018038
10
40.134929203087317
20
13.650645497695633
30
0
10
42.088946721150897
20
13.639117984600171
30
0
10
42.893611001946859
20
13.63429520690034
30
0
10
44.346612919879711
20
13.62558659957825
30
0
10
45.799615243991212
20
13.616946029556852
30
0
10
49.1620233232046
20
13.59695079488497
30
0
10
51.61163084284447
20
13.58346903307938
30
0
10
57.623603772875001
20
13.55038128887033
30
0
10
63.235720992349975
20
13.527891187462311
30
0
10
68.886756214878403
20
13.505245125335561
30
0
10
74.859882834130048
20
13.490168462850509
30
0
10
80.305719680597008
20
13.476422723086809
30
0
10
86.484084858135219
20
13.467825000888428
30
0
10
91.698992052312164
20
13.46056801266319
30
0
10
98.108302809717642
20
13.456075699444924
30
0
10
103.14997062622481
20
13.45254197299113
30
0
10
109.7325253585234
20
13.450136820480632
30
0
10
119.19247704417991
20
13.446680316512811
30
0
10
132.98097296613579
20
13.444942009715312
30
0
10
146.73930373458342
20
13.44320750581945
30
0
10
156.22942114542604
20
13.444246267629882
30
0
10
162.81809204740992
20
13.44496744518942
30
0
10
167.8536448416649
20
13.447183953545501
30
0
10
174.26705282061232
20
13.450006954903442
30
0
10
179.4778654917462
20
13.45586746279257
30
0
10
185.6586363664037
20
13.462818865339353
30
0
10
191.1020731366462
20
13.475069596474501
30
0
10
197.07718445961362
20
13.48851688821509
30
0
10
202.72624497061682
20
13.509578813111261
30
0
10
208.34194726825791
20
13.530516365435181
30
0
10
214.35035024902072
20
13.561897454533591
30
0
10
215.54732236900904
20
13.568149080608791
30
0
10
216.84121979311601
20
13.5752183124455
30
0
10
218.67280508792044
20
13.585225211629322
30
0
10
220.16237499408385
20
13.593746923757912
30
0
10
222.99120888830419
20
13.609930459694441
30
0
10
225.82004432727715
20
13.625841375962999
30
0
0
SPLINE
5
106
100
AcDbEntity
8
0
100
AcDbSpline
70
0
71
2
72
48
73
45
74
0
42
0.000000001
43
0.0000000001
44
0.0000000001
40
0
40
0
40
0
40
0.03125
40
0.03125
40
0.0625
40
0.0625
40
0.09375
40
0.09375
40
0.125
40
0.125
40
0.1875
40
0.1875
40
0.21875
40
0.21875
40
0.25
40
0.25
40
0.3125
40
0.3125
40
0.375
40
0.375
40
0.4375
40
0.4375
40
0.5
40
0.5
40
0.5625
40
0.5625
40
0.625
40
0.625
40
0.6875
40
0.6875
40
0.75
40
0.75
40
0.78125
40
0.78125
40
0.8125
40
0.8125
40
0.875
40
0.875
40
0.90625
40
0.90625
40
0.9375
40
0.9375
40
0.96875
40
0.96875
40
1
40
1
40
1
10
225.79252302432434
20
19.976668622627749
30
0
10
225.79899549255131
20
20.113520678732129
30
0
10
225.80283432937932
20
20.181864559443881
30
0
10
225.80923239075923
20
20.295771027295594
30
0
10
225.8167612571755
20
20.386566775753749
30
0
10
225.82579589687509
20
20.495521673903191
30
0
10
225.83791943690883
20
20.590280714593764
30
0
10
225.8512048338203
20
20.694120967774197
30
0
10
225.86985360065222
20
20.792512279036433
30
0
10
225.9069787787513
20
20.988385549742695
30
0
10
225.96935186707839
20
21.190558311339988
30
0
10
225.9991998480088
20
21.287305945530541
30
0
10
226.03479969316723
20
21.385390014131239
30
0
10
226.06996356468602
20
21.482272895811828
30
0
10
226.10935182693819
20
21.576777715205676
30
0
10
226.18898232238848
20
21.767836298662175
30
0
10
226.28512971954945
20
21.947404741050633
30
0
10
226.38197601030413
20
22.128278463017391
30
0
10
226.49655073273451
20
22.298874850748692
30
0
10
226.610866430236
20
22.469085562509829
30
0
10
226.74187181246987
20
22.627838288998234
30
0
10
226.87245353119704
20
22.786077618741789
30
0
10
227.0181792184535
20
22.931157143865516
30
0
10
227.16374710134818
20
23.07607956434742
30
0
10
227.32269194129884
20
23.206144460982827
30
0
10
227.48180830708381
20
23.336349717568922
30
0
10
227.65255371440793
20
23.450235789586038
30
0
10
227.82333217202472
20
23.564143905932589
30
0
10
228.0045403513671
20
23.660793032928403
30
0
10
228.18410944136869
20
23.756567935844089
30
0
10
228.37527263525843
20
23.836330750770379
30
0
10
228.46971666303182
20
23.875737507661533
30
0
10
228.56656967457019
20
23.911058802006263
30
0
10
228.66455054576068
20
23.946791415132914
30
0
10
228.76122904960135
20
23.976915906086077
30
0
10
228.96305800329861
20
24.039804699852905
30
0
10
229.15881805337901
20
24.078140108174129
30
0
10
229.25706290877841
20
24.097379256537931
30
0
10
229.36083540968201
20
24.111500057838505
30
0
10
229.45550256357961
20
24.124381852709501
30
0
10
229.56436684396792
20
24.134445301936253
30
0
10
229.65508707762501
20
24.142831509625356
30
0
10
229.7689081492986
20
24.15040264295261
30
0
10
229.837200792305
20
24.154945322949239
30
0
10
229.97395439015204
20
24.162866032428436
30
0
0
SPLINE
5
107
100
AcDbEntity
8
0
100
AcDbSpline
70
0
71
2
72
16
73
13
74
0
42
0.000000001
43
0.0000000001
44
0.0000000001
40
0
40
0
40
0
40
0.25
40
0.25
40
0.5
40
0.5
40
0.75
40
0.75
40
0.875
40
0.875
40
0.9375
40
0.9375
40
1
40
1
40
1
10
229.97395439015204
20
24.162866032428436
30
0
10
233.08583088461333
20
24.188549110784379
30
0
10
233.34764602031399
20
24.190724604937266
30
0
10
234.56009487829533
20
24.200799176807351
30
0
10
236.72133487798885
20
24.218916941391576
30
0
10
239.03851187060752
20
24.238341932256972
30
0
10
240.09502456376532
20
24.247009552695971
30
0
10
241.10372926675481
20
24.255284956822166
30
0
10
241.78187298016752
20
24.260619206559142
30
0
10
242.28535565268132
20
24.264579579943444
30
0
10
242.62529977440468
20
24.267096662011394
30
0
10
242.91169873475661
20
24.269217274316031
30
0
10
243.46873013336773
20
24.273090720101379
30
0
0
SPLINE
5
108
100
AcDbEntity
8
0
100
AcDbSpline
70
0
71
2
72
10
73
7
74
0
42
0.000000001
43
0.0000000001
44
0.0000000001
40
0
40
0
40
0
40
0.25
40
0.25
40
0.5
40
0.5
40
1
40
1
40
1
10
243.46873013336773
20
24.273090720101379
30
0
10
243.73170118930503
20
25.23309456226848
30
0
10
244.20683438777073
20
26.967184449562431
30
0
10
244.68012216159252
20
28.694539105087085
30
0
10
244.94494712808418
20
29.661275854436791
30
0
10
245.59506976618408
20
32.034531873918034
30
0
10
246.42035455797568
20
35.049682710581195
30
0
0
SPLINE
5
109
100
AcDbEntity
8
0
100
AcDbSpline
70
0
71
2
72
82
73
79
74
0
42
0.000000001
43
0.0000000001
44
0.0000000001
40
9.7999999999999999e-15
40
9.7999999999999999e-15
40
9.7999999999999999e-15
40
0.0078125
40
0.0078125
40
0.015625
40
0.015625
40
0.03125
40
0.03125
40
0.0625
40
0.0625
40
0.125
40
0.125
40
0.25
40
0.25
40
0.35714285714285721
40
0.35714285714285721
40
0.4285714285714286
40
0.4285714285714286
40
0.5
40
0.5
40
0.5625
40
0.5625
40
0.625
40
0.625
40
0.65625
40
0.65625
40
0.671875
40
0.671875
40
0.6875
40
0.6875
40
0.71875
40
0.71875
40
0.734375
40
0.734375
40
0.75
40
0.75
40
0.765625
40
0.765625
40
0.7734375
40
0.7734375
40
0.78125
40
0.78125
40
0.7890625
40
0.7890625
40
0.796875
40
0.796875
40
0.8046875
40
0.8046875
40
0.8125
40
0.8125
40
0.828125
40
0.828125
40
0.84375
40
0.84375
40
0.875
40
0.875
40
0.890625
40
0.890625
40
0.90625
40
0.90625
40
0.921875
40
0.921875
40
0.9375
40
0.9375
40
0.953125
40
0.953125
40
0.96875
40
0.96875
40
0.984375
40
0.984375
40
0.98828125
40
0.98828125
40
0.9921875
40
0.9921875
40
0.99609375
40
0.99609375
40
0.998046875
40
0.998046875
40
1.001321002970702
40
1.001321002970702
40
1.001321002970702
10
246.42089794770271
20
35.095816860225021
30
0
10
246.41876172579711
20
35.720753621036671
30
0
10
246.41722015832835
20
36.153913206949852
30
0
10
246.41502509496991
20
36.770696289500648
30
0
10
246.41351630961395
20
37.212009452682956
30
0
10
246.40990527881371
20
38.268220277294454
30
0
10
246.40651439062168
20
39.328203323389346
30
0
10
246.3999455169234
20
41.381616576096967
30
0
10
246.39379825585834
20
43.560595112887313
30
0
10
246.38215039050411
20
47.689336081862564
30
0
10
246.37269964290269
20
52.025390508089551
30
0
10
246.35448540104932
20
60.382183784162955
30
0
10
246.34559772671503
20
68.955011566562874
30
0
10
246.33785194505538
20
76.426398310617998
30
0
10
246.3380201700524
20
83.466132051938487
30
0
10
246.33813995844162
20
88.478932654033017
30
0
10
246.34228583065251
20
93.140212905689438
30
0
10
246.34665519358791
20
98.052767882420483
30
0
10
246.35582129220981
20
102.8142850938155
30
0
10
246.36373651293894
20
106.9260082258441
30
0
10
246.37572691444919
20
111.27908328089012
30
0
10
246.38786541756613
20
115.68592612741192
30
0
10
246.40215076924244
20
119.74386367777143
30
0
10
246.40992369672179
20
121.95186352320532
30
0
10
246.4181699541254
20
123.97624422616032
30
0
10
246.42247504222698
20
125.0331039445404
30
0
10
246.42703503789204
20
126.09243111271981
30
0
10
246.43158972062122
20
127.15052403903559
30
0
10
246.43609680692941
20
128.2086171691613
30
0
10
246.44795631345559
20
130.99278004598369
30
0
10
246.45306269749742
20
132.44099401005531
30
0
10
246.45679353110262
20
133.49909016582859
30
0
10
246.4607148596161
20
134.5571856327702
30
0
10
246.46523863786092
20
135.77784063234529
30
0
10
246.469252754754
20
136.67337382070428
30
0
10
246.47436187381453
20
137.8131975488954
30
0
10
246.48018904984406
20
138.78955084808831
30
0
10
246.48340615119463
20
139.32858167559428
30
0
10
246.48703408918291
20
139.84763141050649
30
0
10
246.48906789435557
20
140.13860827924151
30
0
10
246.49482183315087
20
140.9057054725107
30
0
10
246.49974296820145
20
141.56177586523182
30
0
10
246.5023330254576
20
141.9637815237721
30
0
10
246.50608616578634
20
142.5463105956191
30
0
10
246.5078998383882
20
143.02186944946899
30
0
10
246.51004784717443
20
143.58509381269502
30
0
10
246.50983096983435
20
144.07997000971918
30
0
10
246.50959099349052
20
144.62755409686892
30
0
10
246.50649849166336
20
145.13806678617041
30
0
10
246.49975729981193
20
146.25090815979209
30
0
10
246.47892830543017
20
147.25407590610391
30
0
10
246.45660452367153
20
148.32923572542441
30
0
10
246.41587030813935
20
149.36931521580391
30
0
10
246.33162951743952
20
151.52026172392334
30
0
10
246.16696870741649
20
153.59412590299968
30
0
10
246.08250089592391
20
154.65797812452132
30
0
10
245.97684426787933
20
155.70173701472061
30
0
10
245.86787535655611
20
156.77821723232668
30
0
10
245.7393485313776
20
157.80452980213991
30
0
10
245.60511636038183
20
158.8764007067164
30
0
10
245.4486519331295
20
159.90061712849891
30
0
10
245.28580069094969
20
160.96664165226622
30
0
10
245.09789015620768
20
161.9874779581929
30
0
10
244.90287667091533
20
163.04690150889758
30
0
10
244.68012029142884
20
164.0619455311473
30
0
10
244.44839553216161
20
165.11785617327411
30
0
10
244.1877719779277
20
166.11996295182399
30
0
10
243.91502126847371
20
167.16869907086613
30
0
10
243.61148335973112
20
168.15603467965144
30
0
10
243.53429602423483
20
168.40710646570449
30
0
10
243.45309726953013
20
168.66082317529018
30
0
10
243.36901458969635
20
168.92355110674953
30
0
10
243.28887593193488
20
169.16375165092131
30
0
10
243.206774436979
20
169.4098354301691
30
0
10
243.11771424701308
20
169.66434288023441
30
0
10
243.07888304781343
20
169.77531086149622
30
0
10
243.02974198728367
20
169.91381235548113
30
0
10
242.98031531337696
20
170.0531188357441
30
0
10
242.84735530468794
20
170.42571787683619
30
0
0
SPLINE
5
110
100
AcDbEntity
8
0
100
AcDbSpline
70
0
71
2
72
180
73
177
74
0
42
0.000000001
43
0.0000000001
44
0.0000000001
40
0.00062826479632269996
40
0.00062826479632269996
40
0.00062826479632269996
40
0.0009765625
40
0.0009765625
40
0.001953125
40
0.001953125
40
0.00390625
40
0.00390625
40
0.005859375
40
0.005859375
40
0.0078125
40
0.0078125
40
0.015625
40
0.015625
40
0.0234375
40
0.0234375
40
0.03125
40
0.03125
40
0.046875
40
0.046875
40
0.0546875
40
0.0546875
40
0.0625
40
0.0625
40
0.0703125
40
0.0703125
40
0.078125
40
0.078125
40
0.084821428571428603
40
0.084821428571428603
40
0.09375
40
0.09375
40
0.109375
40
0.109375
40
0.1160714285714286
40
0.1160714285714286
40
0.125
40
0.125
40
0.140625
40
0.140625
40
0.15625
40
0.15625
40
0.171875
40
0.171875
40
0.1875
40
0.1875
40
0.203125
40
0.203125
40
0.21875
40
0.21875
40
0.234375
40
0.234375
40
0.25
40
0.25
40
0.28125
40
0.28125
40
0.296875
40
0.296875
40
0.3125
40
0.3125
40
0.328125
40
0.328125
40
0.34375
40
0.34375
40
0.359375
40
0.359375
40
0.375
40
0.375
40
0.40625
40
0.40625
40
0.421875
40
0.421875
40
0.4296875
40
0.4296875
40
0.4375
40
0.4375
40
0.4453125
40
0.4453125
40
0.453125
40
0.453125
40
0.4609375
40
0.4609375
40
0.46875
40
0.46875
40
0.4765625
40
0.4765625
40
0.484375
40
0.484375
40
0.4921875
40
0.4921875
40
0.5
40
0.5
40
0.5078125
40
0.5078125
40
0.515625
40
0.515625
40
0.5234375
40
0.5234375
40
0.53125
40
0.53125
40
0.5390625
40
0.5390625
40
0.546875
40
0.546875
40
0.5625
40
0.5625
40
0.578125
40
0.578125
40
0.59375
40
0.59375
40
0.625
40
0.625
40
0.640625
40
0.640625
40
0.65625
40
0.65625
40
0.671875
40
0.671875
40
0.6875
40
0.6875
40
0.71875
40
0.71875
40
0.75
40
0.75
40
0.765625
40
0.765625
40
0.78125
40
0.78125
40
0.796875
40
0.796875
40
0.8125
40
0.8125
40
0.828125
40
0.828125
40
0.84375
40
0.84375
40
0.859375
40
0.859375
40
0.875
40
0.875
40
0.8828125
40
0.8828125
40
0.890625
40
0.890625
40
0.8984375
40
0.8984375
40
0.90625
40
0.90625
40
0.921875
40
0.921875
40
0.9296875
40
0.9296875
40
0.9375
40
0.9375
40
0.953125
40
0.953125
40
0.9609375
40
0.9609375
40
0.96875
40
0.96875
40
0.9765625
40
0.9765625
40
0.984375
40
0.984375
40
0.98772321428571441
40
0.98772321428571441
40
0.9921875
40
0.9921875
40
0.994140625
40
0.994140625
40
0.99609375
40
0.99609375
40
0.998046875
40
0.998046875
40
0.9990234375
40
0.9990234375
40
1
40
1
40
1
10
240.96935822715142
20
173.92141821464949
30
0
10
240.95310560690592
20
173.95434384233792
30
0
10
240.94110881523861
20
173.97860496879329
30
0
10
240.88504749787069
20
174.09197783944362
30
0
10
240.83983825025282
20
174.18249367530603
30
0
10
240.73085384286418
20
174.40069714584598
30
0
10
240.63356306443293
20
174.5883784559858
30
0
10
240.53181864161186
20
174.78465118483359
30
0
10
240.42090378947083
20
174.99097749457886
30
0
10
240.31255998077734
20
175.19252109131071
30
0
10
240.20264638542716
20
175.39057124022145
30
0
10
239.75544887593043
20
176.1963635816177
30
0
10
239.2731971617232
20
176.95649765405471
30
0
10
238.77821162978069
20
177.73670300555122
30
0
10
238.24998078286842
20
178.46278591116584
30
0
10
237.71574855931686
20
179.1971180453391
30
0
10
237.1310967650877
20
179.89942288952892
30
0
10
235.9821362370613
20
181.27959575922719
30
0
10
234.6306107095572
20
182.54488286671818
30
0
10
233.97321341770373
20
183.16033281638951
30
0
10
233.26592994027641
20
183.75058061136718
30
0
10
232.57779096850936
20
184.32485178224394
30
0
10
231.8372409041624
20
184.87975110303279
30
0
10
231.11743073433951
20
185.41910987641191
30
0
10
230.35377874038284
20
185.93597987941052
30
0
10
229.61492425278291
20
186.43606594510982
30
0
10
228.82319674540122
20
186.92273451896051
30
0
10
228.1731022117954
20
187.32234243530567
30
0
10
227.4797577330682
20
187.71761866841632
30
0
10
226.59929183506949
20
188.21957296995251
30
0
10
225.65210284538921
20
188.71330657890064
30
0
10
224.10740666730732
20
189.51849796841429
30
0
10
222.3764838943612
20
190.30531482636081
30
0
10
221.68068807955461
20
190.62159922987962
30
0
10
220.94921869176068
20
190.93753192879359
30
0
10
220.0159181140005
20
191.34063857324134
30
0
10
219.0293584698135
20
191.74136547255731
30
0
10
217.37055952826663
20
192.41514668827102
30
0
10
215.63128793265435
20
193.05250783674239
30
0
10
213.95211004162462
20
193.66784747191761
30
0
10
212.19194721548149
20
194.25131950341358
30
0
10
210.4975220267855
20
194.81300032769991
30
0
10
208.71873170262461
20
195.34822331665231
30
0
10
207.01568919572333
20
195.86065442698361
30
0
10
205.21801839075732
20
196.35401552650481
30
0
10
203.47402556731029
20
196.83264499223151
30
0
10
201.69509345424859
20
197.2790741236314
30
0
10
199.93756514725311
20
197.72013189629263
30
0
10
198.1530233535685
20
198.12790034196709
30
0
10
196.38787789545552
20
198.5312367179441
30
0
10
194.59397045943081
20
198.902456451239
30
0
10
192.82543939310185
20
199.26842496086368
30
0
10
191.01998954194721
20
199.60494428570968
30
0
10
187.5053178958967
20
200.260046906604
30
0
10
183.83538779361092
20
200.80689541160422
30
0
10
182.05443758028309
20
201.07227102762269
30
0
10
180.22840176432734
20
201.31345624768485
30
0
10
178.4492608804716
20
201.54844752323652
30
0
10
176.61376964398539
20
201.76226457175559
30
0
10
174.83668924377102
20
201.96927732049659
30
0
10
172.99294323772494
20
202.15806074998022
30
0
10
171.21871831557962
20
202.33972582986652
30
0
10
169.36720974470791
20
202.50610904224862
30
0
10
167.59344400078004
20
202.6655060048829
30
0
10
165.7376610154964
20
202.81187716499161
30
0
10
163.92562232229943
20
202.95479808181659
30
0
10
162.10513487478892
20
203.0800029687143
30
0
10
158.4532681798006
20
203.33116183121371
30
0
10
154.8329121804878
20
203.50657203739689
30
0
10
153.00746496414484
20
203.59501695073061
30
0
10
151.19390946030632
20
203.66401779955191
30
0
10
150.28249775215392
20
203.69869453337958
30
0
10
149.37384127374551
20
203.72848862628109
30
0
10
148.48884981286599
20
203.75750676286941
30
0
10
147.55346903153509
20
203.78372343008593
30
0
10
146.68739870005851
20
203.80799747774603
30
0
10
145.73286503004732
20
203.83071249935699
30
0
10
144.88552725578532
20
203.85087658204898
30
0
10
143.9121027215154
20
203.87113057199571
30
0
10
143.10758014713599
20
203.88787022829135
30
0
10
142.09124943686641
20
203.90723700237731
30
0
10
141.1133305374515
20
203.92587181701785
30
0
10
140.27035379431163
20
203.94114813635537
30
0
10
139.2526131134415
20
203.95959150596195
30
0
10
138.44940979832822
20
203.97233878292684
30
0
10
137.4760737404643
20
203.98778615979381
30
0
10
136.6283798869116
20
203.99798515277018
30
0
10
135.67310077802091
20
204.00947855322514
30
0
10
134.80725159067151
20
204.01518868353321
30
0
10
133.86626497317673
20
204.02139433260319
30
0
10
132.98605270895951
20
204.0210401054691
30
0
10
132.11196581960041
20
204.02068834339286
30
0
10
131.16485746530572
20
204.01404765052433
30
0
10
130.3016335802742
20
204.00799511738867
30
0
10
129.34373264675253
20
203.99645243294586
30
0
10
128.50184136132293
20
203.9863076621215
30
0
10
127.52269827040109
20
203.97111285310837
30
0
10
126.7368876583725
20
203.95891826961883
30
0
10
125.7017379392876
20
203.9408854222433
30
0
10
124.69534198049558
20
203.92335348035169
30
0
10
123.88081815333462
20
203.90829754840098
30
0
10
122.88769480002779
20
203.88994032283244
30
0
10
122.05995139425312
20
203.87288185752192
30
0
10
120.05313405647159
20
203.83152456768713
30
0
10
118.41859314982781
20
203.78518443794704
30
0
10
116.58453794648979
20
203.73318796864609
30
0
10
114.7782020673457
20
203.66397529181253
30
0
10
112.96064709791322
20
203.59433273741317
30
0
10
111.1392134392279
20
203.50618183319062
30
0
10
107.5046330737021
20
203.33028108371093
30
0
10
103.86688981360541
20
203.08128099741012
30
0
10
102.0401002545081
20
202.95623897950321
30
0
10
100.23428029306992
20
202.81428925950951
30
0
10
98.381865787271664
20
202.6686768917067
30
0
10
96.604677507488219
20
202.5091693154792
30
0
10
94.755193217651311
20
202.3431729718736
30
0
10
92.978920465080563
20
202.16136906197502
30
0
10
91.136322606936758
20
201.97277668814269
30
0
10
89.358083024316102
20
201.7656743866176
30
0
10
85.644779224887927
20
201.33320523530693
30
0
10
82.136405631614466
20
200.81074170724619
30
0
10
78.464834604763553
20
200.26397497867123
30
0
10
74.951768353898558
20
199.60902075301613
30
0
10
73.146134293569361
20
199.27238956722283
30
0
10
71.377827708228793
20
198.90632917078531
30
0
10
69.586041264233572
20
198.53540816565069
30
0
10
67.818824087243684
20
198.13154539346931
30
0
10
66.034182522476556
20
197.72370061973032
30
0
10
64.276728386514165
20
197.2828229163832
30
0
10
62.492604957411885
20
196.8352549122942
30
0
10
60.753694517305007
20
196.35817864006668
30
0
10
58.959057393101006
20
195.86581355359129
30
0
10
57.25299289663019
20
195.35234953617649
30
0
10
55.475254968300035
20
194.81731439507882
30
0
10
53.77985127537228
20
194.25521133334189
30
0
10
52.022260570614151
20
193.6724904624684
30
0
10
50.340476520592873
20
193.05649160159169
30
0
10
48.604613943563578
20
192.42068501865083
30
0
10
46.941860818820416
20
191.74674662297789
30
0
10
46.074748155530656
20
191.39529305571702
30
0
10
45.260460730616686
20
191.0470173693152
30
0
10
44.402738481866663
20
190.68016434446702
30
0
10
43.593905754261534
20
190.31265324577993
30
0
10
42.747226235459067
20
189.92794561764993
30
0
10
41.94542967871935
20
189.53858188808081
30
0
10
41.111037446526836
20
189.1333892382512
30
0
10
40.318634275855523
20
188.7199512646711
30
0
10
38.62219130824257
20
187.83482867962434
30
0
10
37.147661004460595
20
186.92913603882357
30
0
10
36.353997900052512
20
186.44164871415222
30
0
10
35.616683904666822
20
185.94299461741042
30
0
10
34.850977220562129
20
185.42513821251251
30
0
10
34.133099536869892
20
184.88694437377373
30
0
10
32.637546208184986
20
183.7657260864695
30
0
10
31.341424382509704
20
182.55007792835085
30
0
10
30.672301711505646
20
181.92249977447059
30
0
10
30.051233755866555
20
181.26502063208198
30
0
10
29.423829771157607
20
180.60083399992351
30
0
10
28.842135473814263
20
179.90339904530131
30
0
10
28.254137732073804
20
179.19840643973254
30
0
10
27.720719199635209
20
178.46872374736958
30
0
10
27.186742722732863
20
177.73827782239704
30
0
10
26.694036221181449
20
176.96480067696211
30
0
10
26.485477466394578
20
176.63739393522033
30
0
10
26.283474379606599
20
176.30098880496089
30
0
10
26.018372769589128
20
175.85950277092093
30
0
10
25.763197588883511
20
175.39971652315418
30
0
10
25.653398923156491
20
175.20187629282771
30
0
10
25.545002168719964
20
175.00008850318611
30
0
10
25.434308326081126
20
174.79402453061471
30
0
10
25.332509600507759
20
174.5974012192994
30
0
10
25.235354462386951
20
174.4097469548575
30
0
10
25.126468114100629
20
174.19139777060263
30
0
10
25.081315574739644
20
174.10085363635912
30
0
10
25.02532848816103
20
173.98744405436074
30
0
10
24.991736236210489
20
173.919398305155
30
0
10
24.924733167364824
20
173.78321504108212
30
0
0
SPLINE
5
111
100
AcDbEntity
8
0
100
AcDbSpline
70
0
71
2
72
62
73
59
74
0
42
0.000000001
43
0.0000000001
44
0.0000000001
40
0
40
0
40
0
40
0.001953125
40
0.001953125
40
0.00390625
40
0.00390625
40
0.0078125
40
0.0078125
40
0.01171875
40
0.01171875
40
0.015625
40
0.015625
40
0.03125
40
0.03125
40
0.046875
40
0.046875
40
0.0625
40
0.0625
40
0.09375
40
0.09375
40
0.109375
40
0.109375
40
0.125
40
0.125
40
0.15625
40
0.15625
40
0.1640625
40
0.1640625
40
0.171875
40
0.171875
40
0.1875
40
0.1875
40
0.203125
40
0.203125
40
0.21875
40
0.21875
40
0.25
40
0.25
40
0.28125
40
0.28125
40
0.3125
40
0.3125
40
0.375
40
0.375
40
0.5
40
0.5
40
0.75
40
0.75
40
0.875
40
0.875
40
0.9375
40
0.9375
40
0.96875
40
0.96875
40
0.984375
40
0.984375
40
0.9921875
40
0.9921875
40
1
40
1
40
1
10
23.03146190006894
20
170.1752079170555
30
0
10
22.972249129514847
20
170.00909069517033
30
0
10
22.942761896892556
20
169.92599080801182
30
0
10
22.89361650918449
20
169.78749099606858
30
0
10
22.854776809628948
20
169.67652604162109
30
0
10
22.765666874591425
20
169.42193911135644
30
0
10
22.683540343228231
20
169.17596054932409
30
0
10
22.603279355347748
20
168.93556950810444
30
0
10
22.519185955038058
20
168.67307606843394
30
0
10
22.437839254660773
20
168.41915631837969
30
0
10
22.360645715702582
20
168.16833629503168
30
0
10
22.05639832611535
20
167.1797647333438
30
0
10
21.7840637337898
20
166.13235179906559
30
0
10
21.524482403954419
20
165.13398857225332
30
0
10
21.292037329692199
20
164.0742590209139
30
0
10
21.069189958519033
20
163.05828591234271
30
0
10
20.874241763184322
20
161.99979691502261
30
0
10
20.505587816677462
20
159.99815670734517
30
0
10
20.23213516441206
20
157.81695005538802
30
0
10
20.10299114427032
20
156.78682731399118
30
0
10
19.994535111482243
20
155.71417115001981
30
0
10
19.889133268754151
20
154.67172165790609
30
0
10
19.805259539434982
20
153.60648676769608
30
0
10
19.642439933137268
20
151.53860297563719
30
0
10
19.560505558498193
20
149.38144362351849
30
0
10
19.540555110287514
20
148.8561903811981
30
0
10
19.525346744415408
20
148.32392783025691
30
0
10
19.510621453528781
20
147.8085719427919
30
0
10
19.499749103742641
20
147.26613706967481
30
0
10
19.479877590586788
20
146.27472289247441
30
0
10
19.472263804893551
20
145.1501250521635
30
0
10
19.46580524968391
20
144.19616108033034
30
0
10
19.4675925277961
20
143.0339313942215
30
0
10
19.46893011150468
20
142.1641286012848
30
0
10
19.475352704831849
20
140.91774239998199
30
0
10
19.48625730110205
20
138.8015663275612
30
0
10
19.496756266012962
20
136.68538820381019
30
0
10
19.508222138835951
20
134.37431949905181
30
0
10
19.51702667687205
20
132.4530284493764
30
0
10
19.526553652165948
20
130.374090032841
30
0
10
19.535420750006722
20
128.22066013673918
30
0
10
19.552607062700073
20
124.04685713807872
30
0
10
19.566792469271054
20
119.75590185643129
30
0
10
19.594614969979538
20
111.33985077130171
30
0
10
19.608917244683827
20
102.8263228548969
30
0
10
19.636279315594969
20
86.538860938996734
30
0
10
19.61557992438259
20
68.967068470497509
30
0
10
19.605740965729943
20
60.614738791964342
30
0
10
19.585214790645821
20
52.037463456550263
30
0
10
19.574956587626602
20
47.750866885020741
30
0
10
19.56242328760036
20
43.572677627252048
30
0
10
19.55590493223314
20
41.399672726946683
30
0
10
19.54902215929501
20
39.34029054307932
30
0
10
19.545513516476511
20
38.290475799109615
30
0
10
19.541739824485511
20
37.224098916166859
30
0
10
19.54018449532505
20
36.784591116904252
30
0
10
19.537913530234192
20
36.166003755069688
30
0
10
19.53633315013963
20
35.735524591319425
30
0
10
19.534125830351023
20
35.107908455775387
30
0
0
LINE
5
112
100
AcDbEntity
8
0
100
AcDbLine
10
40.163176817949299
20
19.986480691002999
30
0
11
40.134929203087317
21
13.650645497695633
31
0
0
LINE
5
113
100
AcDbEntity
8
0
100
AcDbLine
10
225.79252302432434
20
19.976668622627749
30
0
11
225.82004432727715
21
13.625841375962999
31
0
0
LINE
5
114
100
AcDbEntity
8
0
100
AcDbLine
10
246.42035455797568
20
35.049682710581195
30
0
11
246.42104700043745
21
35.052212526335353
31
0
0
LINE
5
115
100
AcDbEntity
8
0
100
AcDbLine
10
246.42089794770271
20
35.095816860225021
30
0
11
246.42104700043745
21
35.052212526335353
31
0
0
LINE
5
116
100
AcDbEntity
8
0
100
AcDbLine
10
19.534503757547679
20
35.07119711283525
30
0
11
19.534003152309776
21
35.073026913662709
31
0
0
LINE
5
117
100
AcDbEntity
8
0
100
AcDbLine
10
19.534125830351023
20
35.107908455775387
30
0
11
19.534003152309776
21
35.073026913662709
31
0
0
ENDSEC
0
SECTION
2
OBJECTS
0
DICTIONARY
5
C
100
AcDbDictionary
3
ACAD_GROUP
350
D
3
ACAD_MLINESTYLE
350
17
0
DICTIONARY
5
D
100
AcDbDictionary
0
DICTIONARY
5
1A
330
C
100
AcDbDictionary
0
DICTIONARY
5
17
100
AcDbDictionary
0
ENDSEC
0
EOF
